<svg width="110" height="135" xmlns="http://www.w3.org/2000/svg" version="1.1">

 <g>
  <title>Layer 1</title>
  <path id="svg_1" d="m93.203,50.91933l-1.1641,-1.9922c0.15625,-0.48438 0.17188,-0.98438 -0.03906,-1.4922l-0.01172,-0.03125c-0.28516,-0.63281 -7.0234,-15.531 -9.8555,-20.387c-3.0469,-5.2266 -7.0547,-10.5 -19.098,-12.699c-2.5352,-1.5547 -6.9375,-1.7461 -11.164,-1.7461c-4.2148,0 -8.6016,0.19141 -11.145,1.7344l-0.17187,0.03125c-11.949,2.2188 -15.906,7.4805 -18.938,12.68c-2.832,4.8594 -9.5703,19.754 -9.8672,20.414c-0.19531,0.47266 -0.19531,0.98047 -0.05078,1.5l-1.2031,2.0625c-1.1562,2.4844 3.7891,5.0234 5.332,5.7422c1.0586,0.49219 3.7109,1.625 5.7891,1.625c1.0898,0 2.0195,-0.3125 2.4727,-1.1953l1.3828,-2.0703c0.61328,-0.23047 1.1406,-0.59375 1.5469,-1.1172l3.25,-4.5312l0.00391,27.781c1.1133,11.379 16,11.379 21.602,11.379c5.6055,0 20.492,0 21.609,-11.477l0,-27.684l3.1875,4.4492c0.32812,0.69141 0.92188,1.0859 1.6523,1.2812l1.3281,1.9844c0.45312,0.88281 1.3828,1.1953 2.4727,1.1953c2.0742,0 4.7305,-1.1328 5.7891,-1.625c1.543,-0.71875 6.4883,-3.2578 5.2891,-5.8242l0.00112,0.0125zm-41.329,-35.129c8.4805,0 9.3047,1.082 9.3867,1.2969c0,0.80859 -3.1953,2.7031 -9.3867,2.7031s-9.3867,-1.8945 -9.3867,-2.7031c0.07812,-0.21484 0.90625,-1.2969 9.3867,-1.2969zm-19.605,61.352l0,-33.91l-6.8516,9.5625c-0.21094,0.27344 -0.5625,0.45312 -1.0117,0.55078c-0.10156,0.02344 -0.20312,0.04297 -0.30859,0.05859c-0.10938,0.01563 -0.21875,0.02344 -0.33984,0.03125c-0.04297,0.00391 -0.08984,0.00391 -0.13672,0.00391c-0.40625,0.01172 -0.85938,-0.02344 -1.3477,-0.09766c-0.11328,-0.01953 -0.22656,-0.03515 -0.34375,-0.05859c-0.08203,-0.01562 -0.16406,-0.03125 -0.25,-0.05078c-1.5977,-0.34766 -3.3906,-1.082 -4.8906,-1.9453c-1.5508,-0.90625 -2.4336,-1.7344 -2.8633,-2.3086c-0.08984,-0.125 -0.17188,-0.25 -0.23438,-0.37109l-0.05469,-0.10938c-0.04687,-0.11719 -0.07031,-0.21875 -0.05078,-0.26562c0.07031,-0.15234 6.9805,-15.434 9.7617,-20.203c2.6875,-4.6094 5.9023,-8.9258 15.105,-11.191c-0.02734,0.09375 -0.03906,0.19531 -0.05859,0.29688l-0.11328,0l0,0.64844l0.03125,0c-0.00391,0.09766 -0.01953,0.1875 -0.01953,0.28906c0,4.3047 5.7266,7.5508 13.324,7.5508c0.04296,0 0.08593,-0.00391 0.12891,-0.00391c0.04296,0 0.08593,0.00391 0.12891,0.00391l0,60.996l0.0039,0c-8.6953,0 -18.785,-1.0859 -19.609,-9.4766l0.00038,-0.00059z"/>
 </g>
</svg>