<svg width="110" height="135" xmlns="http://www.w3.org/2000/svg" version="1.1">

 <g>
  <title>Layer 1</title>
  <path id="svg_1" d="m91.344,50.086l-1.1758,-2.0117c0.15234,-0.48828 0.16406,-1 -0.05469,-1.5039c-0.28516,-0.63281 -7.0234,-15.531 -9.8555,-20.387c-3.0469,-5.2266 -7.0547,-10.5 -19.098,-12.699c-2.5352,-1.5547 -6.9375,-1.7461 -11.164,-1.7461c-4.2148,0 -8.6016,0.19141 -11.145,1.7344c-11.902,2.125 -16.125,7.5039 -19.109,12.711c-2.832,4.8555 -9.5703,19.754 -9.8672,20.414c-0.19922,0.47656 -0.19531,0.98828 -0.04297,1.5195l-1.1953,2.0469c-1.1562,2.4844 3.7891,5.0234 5.332,5.7422c1.5,0.63281 6.6914,3.082 8.2617,0.42969l1.3867,-2.0781c0.60156,-0.23047 1.1211,-0.58984 1.5234,-1.1094l3.25,-4.5312l0.00391,27.781c1.1133,11.379 16,11.379 21.602,11.379c5.6055,0 20.492,0 21.609,-11.477l0,-27.684l3.1875,4.4492c0.33203,0.69922 0.93359,1.0977 1.6719,1.2891l1.3203,1.9805c1.5703,2.6523 6.7617,0.19922 8.2617,-0.42969c1.543,-0.71875 6.4883,-3.2617 5.2891,-5.8242l0.00825,0.0048zm-41.344,-31.129c-6.1914,0 -9.3867,-1.8945 -9.3867,-2.7031c0.07812,-0.21484 0.90625,-1.2969 9.3867,-1.2969s9.3047,1.082 9.3867,1.2969c0,0.80859 -3.1953,2.7031 -9.3867,2.7031zm19.613,23.441l0.00391,33.812c-0.82813,8.4844 -10.918,9.5742 -19.613,9.5742c-8.6953,0 -18.785,-1.0859 -19.609,-9.4766l0,-33.91l-6.8516,9.5625c-2.3477,2.207 -10.676,-1.75 -11.828,-4.4258c-0.01172,-0.05859 -0.01563,-0.10547 0,-0.13672c0.07031,-0.15234 6.9805,-15.434 9.7617,-20.203c2.6875,-4.6094 5.9023,-8.9258 15.105,-11.191c-0.02735,0.09375 -0.03907,0.19531 -0.0586,0.29688l-0.11328,0l0,0.64844l0.03125,0c-0.50391,10.699 29.137,10.441 26.691,-1.0117c9.4102,2.2383 12.688,6.5977 15.402,11.258c2.7305,4.6836 9.4453,19.508 9.75,20.18c-0.09375,1.7734 -8.2422,5.6211 -10.973,5.1016l-0.58203,-0.16406c-0.05859,-0.03906 -0.11328,-0.07813 -0.13281,-0.125l-6.9844,-9.793l0.00086,0.00326z"/>
 </g>
</svg>