<svg width="110" height="135" xmlns="http://www.w3.org/2000/svg" version="1.1">

 <g>
  <title>Layer 1</title>
  <path id="svg_1" d="m91.344,50.086l-1.1758,-2.0117c0.15234,-0.48828 0.16406,-1 -0.05469,-1.5039c-0.28516,-0.63281 -7.0234,-15.531 -9.8555,-20.387c-3.0469,-5.2266 -7.0547,-10.5 -19.098,-12.699c-2.5352,-1.5547 -6.9375,-1.7461 -11.164,-1.7461c-4.2148,0 -8.6016,0.19141 -11.145,1.7344c-11.902,2.125 -16.125,7.5039 -19.109,12.711c-2.832,4.8555 -9.5703,19.754 -9.8672,20.414c-0.19922,0.47656 -0.19531,0.98828 -0.04297,1.5195l-1.1953,2.0469c-1.1562,2.4844 3.7891,5.0234 5.332,5.7422c1.5,0.63281 6.6914,3.082 8.2617,0.42969l1.3867,-2.0781c0.60156,-0.23047 1.1211,-0.58984 1.5234,-1.1094l3.25,-4.5312l0.00391,27.781c1.1133,11.379 16,11.379 21.602,11.379c5.6055,0 20.492,0 21.609,-11.477l0,-27.684l3.1875,4.4492c0.33203,0.69922 0.93359,1.0977 1.6719,1.2891l1.3203,1.9805c1.5703,2.6523 6.7617,0.19922 8.2656,-0.42969c1.543,-0.71875 6.4883,-3.2617 5.2891,-5.8242l0.00435,0.0048zm-6.0156,-9.1328l0,9.0391c-1.4062,0.78906 -3.1055,1.5234 -4.6484,2l0,-20.734c1.4805,2.9531 3.2109,6.6094 4.6484,9.6992l0,-0.0043zm-22.199,-25.016c0.85547,0.20312 1.6445,0.42969 2.4023,0.66797l0,66.23c-1.3359,0.85156 -2.918,1.4648 -4.6484,1.9023l-0.00391,-62.977c1.8164,-1.4297 2.7734,-3.3672 2.25,-5.8242l0.00001,0.00093zm-4.1992,7.0234l0,62.188c-1.5039,0.26172 -3.0742,0.42578 -4.6602,0.51562l0,-61.277c1.7031,-0.29688 3.2969,-0.76953 4.6602,-1.4258l0,-0.00082zm-8.9297,-8.0039c8.4805,0 9.3047,1.082 9.3867,1.2969c0,0.80859 -3.1953,2.7031 -9.3867,2.7031s-9.3867,-1.8945 -9.3867,-2.7031c0.07812,-0.21484 0.90625,-1.2969 9.3867,-1.2969zm-4.2812,9.457l0,61.254c-1.582,-0.09375 -3.1484,-0.25391 -4.6484,-0.51562l0,-62.094c1.375,0.625 2.9609,1.0781 4.6484,1.3555l0,0.00012zm-9.2812,-7.4648c-0.09766,2.082 0.95312,3.7422 2.6797,4.9961l0,62.801c-1.7305,-0.43359 -3.3164,-1.043 -4.6484,-1.8867l0,-66.258c0.67188,-0.21094 1.3633,-0.41016 2.1133,-0.59375c-0.02734,0.09375 -0.03906,0.19531 -0.05859,0.29688l-0.11328,0l0,0.64844l0.03125,0l-0.00398,-0.00397zm-17.117,14.324l0,21.02c-1.5703,-0.39844 -3.2578,-1.1406 -4.6602,-2.0039l0,-9.2969c1.4414,-3.0938 3.1758,-6.7578 4.6602,-9.7188l0,-0.0004zm-7.6055,16.262c-0.01172,-0.05859 -0.01563,-0.10547 0,-0.13672c0.01562,-0.03516 0.39844,-0.87891 1.0039,-2.2031l0,3.6367c-0.46484,-0.44531 -0.82812,-0.88281 -1.0039,-1.293l0,-0.00388zm11.828,4.4258c-0.51562,0.48437 -1.3242,0.65625 -2.2734,0.62891l0,-25.035c0.07031,-0.125 0.14062,-0.24609 0.20703,-0.35938c1.207,-2.0703 2.5273,-4.082 4.4453,-5.875l0,27.324l-2.375,3.3164l-0.00393,0.00007zm6.8516,24.348l0,-33.91l-2.5273,3.5234l0,-26.184c1.2891,-0.91016 2.8164,-1.7344 4.6484,-2.457l0,63.961c-1.1562,-1.2695 -1.9219,-2.8828 -2.125,-4.9375l0.0039,0.0041zm17.277,9.4414l0,-61.094c1.543,0.12891 3.1211,0.12109 4.6602,-0.01953l0,61.113c-0.78125,0.01953 -1.5586,0.03516 -2.3242,0.03516c-0.76953,0 -1.5508,-0.01172 -2.332,-0.03516l-0.004,0.00053zm21.941,-43.352l0.00391,33.812c-0.20313,2.0859 -0.97266,3.7227 -2.1367,5.0078l0,-63.934c1.8359,0.71875 3.3594,1.5469 4.6484,2.457l0,26.188l-2.51561,-3.5308zm7.6953,10.082l-0.58203,-0.16406c-0.05859,-0.03906 -0.11328,-0.07812 -0.13281,-0.125l-2.5156,-3.5312l0,-27.344c1.9219,1.793 3.2422,3.8047 4.4531,5.8789c0.0625,0.10938 0.12891,0.22656 0.19922,0.34766l0,24.91c-0.55078,0.07813 -1.0391,0.09766 -1.418,0.02734l-0.00388,0.00036zm9.9727,-3.7812l0,-3.5234c0.56641,1.2344 0.9375,2.0547 1.0039,2.1992c-0.01953,0.37109 -0.40234,0.83203 -1.0039,1.3242z"/>
 </g>
</svg>